<?xml version="1.0" encoding="UTF-8" standalone="no"?> <!DOCTYPE svg PUBLIC "-//W3C//DTD SVG 1.1//EN" "http://www.w3.org/Graphics/SVG/1.1/DTD/svg11.dtd"><svg xmlns="http://www.w3.org/2000/svg" version="1.1" viewBox="0.00 0.00 1448.00 1448.00"><g stroke-width="2.00" fill="none" stroke-linecap="butt"><path stroke="#791841" vector-effect="non-scaling-stroke" d="
  M 354.03 1017.51
  L 420.63 1017.64
  Q 422.75 1017.64 422.75 1015.52
  L 422.75 483.54
  A 1.81 1.81 0.0 0 1 425.72 482.15
  L 724.93 733.21"/><path stroke="#453f59" vector-effect="non-scaling-stroke" d="
  M 724.93 733.21
  L 755.09 758.50
  A 2.11 2.10 -44.9 0 0 757.80 758.50
  L 800.07 723.03"/><path stroke="#245f6c" vector-effect="non-scaling-stroke" d="
  M 800.07 723.03
  Q 831.40 696.74 862.83 670.58
  Q 864.14 669.49 865.29 670.71
  A 1.58 1.56 -66.7 0 1 865.71 671.78
  L 865.71 1184.75
  A 1.59 1.49 -0.0 0 0 867.30 1186.24
  L 937.72 1186.25"/><path stroke="#017f7f" vector-effect="non-scaling-stroke" d="
  M 937.72 1186.25
  L 972.81 1186.23
  A 1.53 1.52 -0.0 0 0 974.34 1184.71
  L 974.34 319.19
  A 1.69 1.68 -90.0 0 0 972.66 317.50
  L 919.32 317.50"/><path stroke="#245f6c" vector-effect="non-scaling-stroke" d="
  M 919.32 317.50
  L 867.43 317.50
  A 1.72 1.71 -0.0 0 0 865.71 319.21
  L 865.71 548.01
  A 3.54 3.52 -20.1 0 1 864.45 550.71
  L 782.24 619.70"/><path stroke="#453f59" vector-effect="non-scaling-stroke" d="
  M 782.24 619.70
  L 757.86 640.17
  A 2.20 2.19 -44.9 0 1 755.03 640.17
  L 730.04 619.21"/><path stroke="#791841" vector-effect="non-scaling-stroke" d="
  M 730.04 619.21
  L 649.04 551.26
  A 3.21 3.20 20.2 0 1 647.91 548.82
  L 647.91 321.51
  A 1.72 1.72 0.0 0 0 646.39 319.80
  Q 644.65 319.59 642.96 319.59
  Q 590.65 319.77 541.60 319.53
  Q 539.16 319.52 539.16 321.97
  L 539.17 455.23
  A 1.76 1.76 0.0 0 1 536.27 456.58
  Q 525.35 447.42 514.34 438.17
  C 513.44 437.41 512.75 436.06 512.04 435.47
  Q 451.16 385.47 391.65 333.86
  Q 391.38 333.63 391.27 333.85"/><path stroke="#7e3350" vector-effect="non-scaling-stroke" d="
  M 391.27 333.85
  L 307.80 262.01
  A 1.89 1.89 0.0 0 0 305.14 262.21
  Q 277.52 294.38 249.11 327.55
  Q 248.36 328.42 248.15 329.63
  Q 248.05 330.18 248.33 330.41
  L 313.24 386.06
  Q 314.04 386.74 314.04 387.80
  Q 314.04 701.71 314.03 1012.88
  Q 314.03 1014.68 314.30 1016.42
  A 1.42 1.40 85.2 0 0 315.70 1017.62
  L 354.03 1017.51"/><path stroke="#f74a91" vector-effect="non-scaling-stroke" d="
  M 391.27 333.85
  Q 390.60 333.58 389.96 333.64
  Q 389.34 333.71 389.34 333.08
  Q 389.33 332.66 388.86 332.67
  A 0.33 0.33 0.0 0 1 388.52 332.26
  Q 388.62 331.91 388.29 331.69
  Q 387.29 331.03 386.54 330.19
  Q 385.88 329.44 386.14 330.41
  Q 386.21 330.69 386.06 330.92
  Q 385.97 331.04 385.82 331.00
  Q 385.69 330.97 385.61 330.85
  A 0.08 0.07 47.4 0 0 385.49 330.84
  L 383.65 332.81"/><path stroke="#feb2cf" vector-effect="non-scaling-stroke" d="
  M 383.65 332.81
  L 307.25 267.42
  Q 306.84 267.06 306.48 267.48
  L 253.82 328.88
  A 0.31 0.30 40.4 0 0 253.86 329.31
  Q 284.60 355.65 316.07 382.61
  Q 318.50 384.69 318.50 387.87
  Q 318.50 699.81 318.50 1012.69
  A 0.56 0.56 0.0 0 0 319.06 1013.25
  L 357.03 1013.21"/><path stroke="#f74a91" vector-effect="non-scaling-stroke" d="
  M 357.03 1013.21
  Q 358.02 1013.38 358.49 1013.83
  Q 358.91 1014.23 358.34 1014.38
  Q 357.75 1014.54 357.09 1014.61
  Q 356.98 1014.62 357.09 1014.62
  Q 357.80 1014.66 358.56 1015.06
  Q 358.82 1015.19 358.73 1015.47
  Q 358.67 1015.63 358.54 1015.72
  Q 358.26 1015.93 357.89 1015.90
  Q 356.20 1015.78 355.21 1016.83
  A 0.03 0.03 0.0 0 1 355.17 1016.79
  Q 355.24 1016.66 355.18 1016.53
  Q 355.06 1016.27 354.92 1016.51
  Q 354.63 1017.01 354.03 1017.51"/><path stroke="#bd569a" vector-effect="non-scaling-stroke" d="
  M 730.04 619.21
  L 729.57 620.05
  A 0.20 0.20 0.0 0 0 729.69 620.34
  Q 729.85 620.39 729.97 620.25
  Q 730.22 619.95 730.11 620.33
  Q 730.09 620.39 730.05 620.43
  Q 729.70 620.79 730.10 621.09
  Q 730.27 621.22 730.36 621.40
  Q 730.39 621.48 730.38 621.57
  Q 730.36 621.74 730.14 621.81
  Q 729.93 621.89 729.73 621.78
  Q 729.30 621.56 728.82 621.61
  Q 728.32 621.66 728.28 622.16
  Q 728.23 622.67 727.95 623.20"/><path stroke="#f897c1" vector-effect="non-scaling-stroke" d="
  M 383.65 332.81
  Q 442.27 383.71 502.17 433.06
  C 502.89 433.66 503.10 434.58 503.86 435.22
  Q 517.47 446.58 533.01 459.68
  C 537.35 463.33 543.62 460.75 543.62 455.03
  Q 543.62 389.48 543.61 324.35
  Q 543.61 324.00 543.95 324.00
  L 643.14 324.01
  A 0.35 0.35 0.0 0 1 643.49 324.36
  Q 643.49 436.64 643.49 549.53
  Q 643.49 552.39 645.59 554.16
  Q 686.80 588.65 727.95 623.20"/><path stroke="#c4bed9" vector-effect="non-scaling-stroke" d="
  M 727.95 623.20
  Q 739.75 633.19 751.64 643.07
  Q 753.76 644.83 755.32 645.20
  Q 757.91 645.82 759.77 644.29
  Q 772.60 633.68 785.36 622.84"/><path stroke="#a3deeb" vector-effect="non-scaling-stroke" d="
  M 785.36 622.84
  Q 826.34 588.53 867.44 554.21
  Q 870.14 551.95 870.14 548.32
  Q 870.19 435.73 870.13 322.55
  A 0.75 0.75 0.0 0 1 870.88 321.80
  L 917.04 321.81"/><path stroke="#80feff" vector-effect="non-scaling-stroke" d="
  M 917.04 321.81
  L 969.56 321.79
  A 0.43 0.43 0.0 0 1 969.99 322.22
  L 969.99 1181.20
  Q 969.99 1181.66 969.53 1181.67
  L 938.96 1182.01"/><path stroke="#a3deeb" vector-effect="non-scaling-stroke" d="
  M 938.96 1182.01
  L 870.71 1181.79
  A 0.57 0.57 0.0 0 1 870.14 1181.22
  Q 870.17 919.48 870.14 672.44
  Q 870.14 667.40 866.26 666.04
  Q 862.66 664.77 860.70 666.41
  Q 829.04 692.87 797.49 719.42"/><path stroke="#c4bed9" vector-effect="non-scaling-stroke" d="
  M 797.49 719.42
  L 758.96 751.72
  A 3.97 3.96 44.9 0 1 753.87 751.72
  L 729.30 731.13"/><path stroke="#f897c1" vector-effect="non-scaling-stroke" d="
  M 729.30 731.13
  Q 579.04 604.92 428.55 478.98
  Q 424.76 475.81 420.79 478.81
  Q 418.34 480.66 418.34 483.72
  Q 418.34 748.08 418.34 1012.72
  A 0.59 0.58 0.0 0 1 417.75 1013.30
  L 357.03 1013.21"/><path stroke="#bd569a" vector-effect="non-scaling-stroke" d="
  M 729.30 731.13
  L 727.43 732.02
  Q 726.88 732.29 726.89 732.90
  Q 726.89 733.09 726.79 733.25
  Q 726.37 733.90 725.85 733.32
  Q 725.17 732.57 724.93 733.21"/><path stroke="#24ddeb" vector-effect="non-scaling-stroke" d="
  M 919.32 317.50
  Q 916.48 318.53 917.17 320.90
  Q 917.30 321.34 916.85 321.39
  Q 916.69 321.40 916.52 321.41
  A 0.04 0.03 38.5 0 1 916.51 321.34
  Q 917.07 321.25 917.04 321.81"/><path stroke="#689dc5" vector-effect="non-scaling-stroke" d="
  M 785.36 622.84
  Q 782.98 622.23 783.36 620.48
  Q 783.45 620.03 782.99 620.04
  Q 782.11 620.07 782.24 619.70"/><path stroke="#689dc5" vector-effect="non-scaling-stroke" d="
  M 800.07 723.03
  Q 800.15 722.77 800.08 722.61
  Q 799.92 722.26 799.60 722.48
  Q 799.36 722.65 799.14 722.65
  Q 798.74 722.65 798.71 722.26
  L 798.62 721.22
  A 0.50 0.50 0.0 0 0 798.17 720.76
  Q 797.50 720.71 797.49 719.42"/><path stroke="#24ddeb" vector-effect="non-scaling-stroke" d="
  M 937.72 1186.25
  L 937.38 1186.05
  Q 936.92 1185.77 937.35 1185.44
  Q 937.48 1185.34 937.64 1185.34
  Q 938.19 1185.34 937.65 1185.23
  Q 937.28 1185.14 936.96 1185.01
  Q 936.20 1184.68 936.99 1184.46
  Q 937.85 1184.23 938.58 1183.71
  Q 939.24 1183.24 938.45 1183.37
  Q 938.24 1183.41 938.05 1183.29
  Q 937.62 1183.02 937.84 1182.56
  Q 938.09 1182.06 938.96 1182.01"/><path stroke="#791841" vector-effect="non-scaling-stroke" d="
  M 1142.21 318.42
  Q 1139.75 319.04 1137.78 321.89"/><path stroke="#808080" vector-effect="non-scaling-stroke" d="
  M 1137.78 321.89
  Q 1107.61 346.76 1027.06 414.34
  C 1025.93 415.29 1024.96 415.58 1024.96 417.22
  Q 1024.97 473.87 1024.96 530.30
  Q 1024.96 531.27 1025.76 531.79
  A 2.01 1.99 -48.4 0 0 1028.14 531.64
  L 1199.29 388.04
  A 1.89 1.89 0.0 0 0 1199.52 385.38
  Q 1171.67 352.23 1143.64 318.80
  Q 1143.40 318.52 1143.05 318.43
  Q 1142.60 318.31 1142.21 318.42"/><path stroke="#f897c1" vector-effect="non-scaling-stroke" d="
  M 1137.78 321.89
  Q 1140.49 320.63 1142.21 318.42"/><path stroke="#791841" vector-effect="non-scaling-stroke" d="
  M 549.14 1186.31
  L 611.99 1186.22"/><path stroke="#453f59" vector-effect="non-scaling-stroke" d="
  M 611.99 1186.22
  L 623.25 1186.24"/><path stroke="#245f6c" vector-effect="non-scaling-stroke" d="
  M 623.25 1186.24
  L 643.67 1186.23"/><path stroke="#017f7f" vector-effect="non-scaling-stroke" d="
  M 643.67 1186.23
  Q 646.07 1186.64 647.32 1185.73
  Q 647.73 1185.42 647.78 1184.91
  Q 647.91 1183.51 647.91 1182.17
  Q 647.94 952.60 647.94 722.63
  Q 647.94 721.11 646.83 720.18
  Q 644.41 718.16 641.63 715.77"/><path stroke="#245f6c" vector-effect="non-scaling-stroke" d="
  M 641.63 715.77
  L 615.08 693.22"/><path stroke="#791841" vector-effect="non-scaling-stroke" d="
  M 615.08 693.22
  L 562.12 648.16"/><path stroke="#7e3350" vector-effect="non-scaling-stroke" d="
  M 562.12 648.16
  L 542.22 631.29
  A 1.74 1.72 -41.7 0 0 540.14 631.18
  C 539.05 631.91 539.16 632.91 539.16 634.13
  Q 539.22 907.94 539.07 1181.76
  Q 539.07 1183.45 539.29 1184.85
  Q 539.51 1186.25 540.93 1186.26
  L 549.14 1186.31"/><path stroke="#f74a91" vector-effect="non-scaling-stroke" d="
  M 562.12 648.16
  L 559.27 651.53"/><path stroke="#feb2cf" vector-effect="non-scaling-stroke" d="
  M 559.27 651.53
  L 544.20 638.67
  Q 543.62 638.18 543.62 638.94
  L 543.62 1181.48
  A 0.42 0.41 -0.0 0 0 544.04 1181.89
  L 553.48 1181.90"/><path stroke="#f74a91" vector-effect="non-scaling-stroke" d="
  M 553.48 1181.90
  L 550.11 1182.13
  Q 549.66 1182.16 549.61 1182.60
  L 549.14 1186.31"/><path stroke="#9c76ad" vector-effect="non-scaling-stroke" d="
  M 615.08 693.22
  L 614.07 694.25
  Q 613.72 694.60 613.75 695.09
  L 613.93 697.99"/><path stroke="#bd569a" vector-effect="non-scaling-stroke" d="
  M 611.07 1182.01
  Q 612.57 1184.42 611.99 1186.22"/><path stroke="#f897c1" vector-effect="non-scaling-stroke" d="
  M 559.27 651.53
  L 613.93 697.99"/><path stroke="#a3deeb" vector-effect="non-scaling-stroke" d="
  M 613.93 697.99
  L 640.20 720.35"/><path stroke="#80feff" vector-effect="non-scaling-stroke" d="
  M 640.20 720.35
  L 643.05 722.89
  A 1.12 1.10 -69.8 0 1 643.43 723.73
  L 643.47 1181.78"/><path stroke="#a3deeb" vector-effect="non-scaling-stroke" d="
  M 643.47 1181.78
  L 623.34 1181.90"/><path stroke="#c4bed9" vector-effect="non-scaling-stroke" d="
  M 623.34 1181.90
  L 611.07 1182.01"/><path stroke="#f897c1" vector-effect="non-scaling-stroke" d="
  M 611.07 1182.01
  L 553.48 1181.90"/><path stroke="#24ddeb" vector-effect="non-scaling-stroke" d="
  M 641.63 715.77
  L 640.20 720.35"/><path stroke="#689dc5" vector-effect="non-scaling-stroke" d="
  M 623.25 1186.24
  L 623.34 1181.90"/><path stroke="#24ddeb" vector-effect="non-scaling-stroke" d="
  M 643.67 1186.23
  Q 644.27 1183.77 643.47 1181.78"/></g><path fill="#000000" d="
  M 710.55 0.00
  L 737.84 0.00
  Q 906.51 3.73 1055.59 80.17
  C 1141.85 124.39 1218.50 186.51 1279.79 260.04
  C 1385.84 387.25 1444.58 544.66 1448.00 710.29
  L 1448.00 737.59
  Q 1444.33 905.20 1368.81 1053.58
  C 1322.37 1144.82 1256.03 1225.28 1177.12 1288.56
  Q 1043.39 1395.81 874.76 1432.26
  Q 805.20 1447.29 728.47 1448.00
  L 719.91 1448.00
  Q 531.67 1446.14 368.77 1354.90
  C 283.58 1307.18 208.75 1241.50 149.97 1164.98
  Q 48.03 1032.25 14.22 867.26
  Q 0.66 801.07 0.00 728.18
  L 0.00 719.19
  Q 0.48 699.11 0.79 692.00
  C 7.93 529.72 68.96 375.85 174.53 252.70
  C 238.57 178.00 318.19 115.86 407.54 72.63
  Q 550.62 3.41 710.55 0.00
  Z
  M 354.03 1017.51
  L 420.63 1017.64
  Q 422.75 1017.64 422.75 1015.52
  L 422.75 483.54
  A 1.81 1.81 0.0 0 1 425.72 482.15
  L 724.93 733.21
  L 755.09 758.50
  A 2.11 2.10 -44.9 0 0 757.80 758.50
  L 800.07 723.03
  Q 831.40 696.74 862.83 670.58
  Q 864.14 669.49 865.29 670.71
  A 1.58 1.56 -66.7 0 1 865.71 671.78
  L 865.71 1184.75
  A 1.59 1.49 -0.0 0 0 867.30 1186.24
  L 937.72 1186.25
  L 972.81 1186.23
  A 1.53 1.52 -0.0 0 0 974.34 1184.71
  L 974.34 319.19
  A 1.69 1.68 -90.0 0 0 972.66 317.50
  L 919.32 317.50
  L 867.43 317.50
  A 1.72 1.71 -0.0 0 0 865.71 319.21
  L 865.71 548.01
  A 3.54 3.52 -20.1 0 1 864.45 550.71
  L 782.24 619.70
  L 757.86 640.17
  A 2.20 2.19 -44.9 0 1 755.03 640.17
  L 730.04 619.21
  L 649.04 551.26
  A 3.21 3.20 20.2 0 1 647.91 548.82
  L 647.91 321.51
  A 1.72 1.72 0.0 0 0 646.39 319.80
  Q 644.65 319.59 642.96 319.59
  Q 590.65 319.77 541.60 319.53
  Q 539.16 319.52 539.16 321.97
  L 539.17 455.23
  A 1.76 1.76 0.0 0 1 536.27 456.58
  Q 525.35 447.42 514.34 438.17
  C 513.44 437.41 512.75 436.06 512.04 435.47
  Q 451.16 385.47 391.65 333.86
  Q 391.38 333.63 391.27 333.85
  L 307.80 262.01
  A 1.89 1.89 0.0 0 0 305.14 262.21
  Q 277.52 294.38 249.11 327.55
  Q 248.36 328.42 248.15 329.63
  Q 248.05 330.18 248.33 330.41
  L 313.24 386.06
  Q 314.04 386.74 314.04 387.80
  Q 314.04 701.71 314.03 1012.88
  Q 314.03 1014.68 314.30 1016.42
  A 1.42 1.40 85.2 0 0 315.70 1017.62
  L 354.03 1017.51
  Z
  M 1142.21 318.42
  Q 1139.75 319.04 1137.78 321.89
  Q 1107.61 346.76 1027.06 414.34
  C 1025.93 415.29 1024.96 415.58 1024.96 417.22
  Q 1024.97 473.87 1024.96 530.30
  Q 1024.96 531.27 1025.76 531.79
  A 2.01 1.99 -48.4 0 0 1028.14 531.64
  L 1199.29 388.04
  A 1.89 1.89 0.0 0 0 1199.52 385.38
  Q 1171.67 352.23 1143.64 318.80
  Q 1143.40 318.52 1143.05 318.43
  Q 1142.60 318.31 1142.21 318.42
  Z
  M 549.14 1186.31
  L 611.99 1186.22
  L 623.25 1186.24
  L 643.67 1186.23
  Q 646.07 1186.64 647.32 1185.73
  Q 647.73 1185.42 647.78 1184.91
  Q 647.91 1183.51 647.91 1182.17
  Q 647.94 952.60 647.94 722.63
  Q 647.94 721.11 646.83 720.18
  Q 644.41 718.16 641.63 715.77
  L 615.08 693.22
  L 562.12 648.16
  L 542.22 631.29
  A 1.74 1.72 -41.7 0 0 540.14 631.18
  C 539.05 631.91 539.16 632.91 539.16 634.13
  Q 539.22 907.94 539.07 1181.76
  Q 539.07 1183.45 539.29 1184.85
  Q 539.51 1186.25 540.93 1186.26
  L 549.14 1186.31
  Z"/><g><path fill="#fc659f" d="
  M 391.27 333.85
  Q 390.60 333.58 389.96 333.64
  Q 389.34 333.71 389.34 333.08
  Q 389.33 332.66 388.86 332.67
  A 0.33 0.33 0.0 0 1 388.52 332.26
  Q 388.62 331.91 388.29 331.69
  Q 387.29 331.03 386.54 330.19
  Q 385.88 329.44 386.14 330.41
  Q 386.21 330.69 386.06 330.92
  Q 385.97 331.04 385.82 331.00
  Q 385.69 330.97 385.61 330.85
  A 0.08 0.07 47.4 0 0 385.49 330.84
  L 383.65 332.81
  L 307.25 267.42
  Q 306.84 267.06 306.48 267.48
  L 253.82 328.88
  A 0.31 0.30 40.4 0 0 253.86 329.31
  Q 284.60 355.65 316.07 382.61
  Q 318.50 384.69 318.50 387.87
  Q 318.50 699.81 318.50 1012.69
  A 0.56 0.56 0.0 0 0 319.06 1013.25
  L 357.03 1013.21
  Q 358.02 1013.38 358.49 1013.83
  Q 358.91 1014.23 358.34 1014.38
  Q 357.75 1014.54 357.09 1014.61
  Q 356.98 1014.62 357.09 1014.62
  Q 357.80 1014.66 358.56 1015.06
  Q 358.82 1015.19 358.73 1015.47
  Q 358.67 1015.63 358.54 1015.72
  Q 358.26 1015.93 357.89 1015.90
  Q 356.20 1015.78 355.21 1016.83
  A 0.03 0.03 0.0 0 1 355.17 1016.79
  Q 355.24 1016.66 355.18 1016.53
  Q 355.06 1016.27 354.92 1016.51
  Q 354.63 1017.01 354.03 1017.51
  L 315.70 1017.62
  A 1.42 1.40 85.2 0 1 314.30 1016.42
  Q 314.03 1014.68 314.03 1012.88
  Q 314.04 701.71 314.04 387.80
  Q 314.04 386.74 313.24 386.06
  L 248.33 330.41
  Q 248.05 330.18 248.15 329.63
  Q 248.36 328.42 249.11 327.55
  Q 277.52 294.38 305.14 262.21
  A 1.89 1.89 0.0 0 1 307.80 262.01
  L 391.27 333.85
  Z"/><path fill="#ffffff" d="
  M 383.65 332.81
  Q 442.27 383.71 502.17 433.06
  C 502.89 433.66 503.10 434.58 503.86 435.22
  Q 517.47 446.58 533.01 459.68
  C 537.35 463.33 543.62 460.75 543.62 455.03
  Q 543.62 389.48 543.61 324.35
  Q 543.61 324.00 543.95 324.00
  L 643.14 324.01
  A 0.35 0.35 0.0 0 1 643.49 324.36
  Q 643.49 436.64 643.49 549.53
  Q 643.49 552.39 645.59 554.16
  Q 686.80 588.65 727.95 623.20
  Q 739.75 633.19 751.64 643.07
  Q 753.76 644.83 755.32 645.20
  Q 757.91 645.82 759.77 644.29
  Q 772.60 633.68 785.36 622.84
  Q 826.34 588.53 867.44 554.21
  Q 870.14 551.95 870.14 548.32
  Q 870.19 435.73 870.13 322.55
  A 0.75 0.75 0.0 0 1 870.88 321.80
  L 917.04 321.81
  L 969.56 321.79
  A 0.43 0.43 0.0 0 1 969.99 322.22
  L 969.99 1181.20
  Q 969.99 1181.66 969.53 1181.67
  L 938.96 1182.01
  L 870.71 1181.79
  A 0.57 0.57 0.0 0 1 870.14 1181.22
  Q 870.17 919.48 870.14 672.44
  Q 870.14 667.40 866.26 666.04
  Q 862.66 664.77 860.70 666.41
  Q 829.04 692.87 797.49 719.42
  L 758.96 751.72
  A 3.97 3.96 44.9 0 1 753.87 751.72
  L 729.30 731.13
  Q 579.04 604.92 428.55 478.98
  Q 424.76 475.81 420.79 478.81
  Q 418.34 480.66 418.34 483.72
  Q 418.34 748.08 418.34 1012.72
  A 0.59 0.58 0.0 0 1 417.75 1013.30
  L 357.03 1013.21
  L 319.06 1013.25
  A 0.56 0.56 0.0 0 1 318.50 1012.69
  Q 318.50 699.81 318.50 387.87
  Q 318.50 384.69 316.07 382.61
  Q 284.60 355.65 253.86 329.31
  A 0.31 0.30 40.4 0 1 253.82 328.88
  L 306.48 267.48
  Q 306.84 267.06 307.25 267.42
  L 383.65 332.81
  Z"/><path fill="#47bdd7" d="
  M 919.32 317.50
  Q 916.48 318.53 917.17 320.90
  Q 917.30 321.34 916.85 321.39
  Q 916.69 321.40 916.52 321.41
  A 0.04 0.03 38.5 0 1 916.51 321.34
  Q 917.07 321.25 917.04 321.81
  L 870.88 321.80
  A 0.75 0.75 0.0 0 0 870.13 322.55
  Q 870.19 435.73 870.14 548.32
  Q 870.14 551.95 867.44 554.21
  Q 826.34 588.53 785.36 622.84
  Q 782.98 622.23 783.36 620.48
  Q 783.45 620.03 782.99 620.04
  Q 782.11 620.07 782.24 619.70
  L 864.45 550.71
  A 3.54 3.52 -20.1 0 0 865.71 548.01
  L 865.71 319.21
  A 1.72 1.71 -0.0 0 1 867.43 317.50
  L 919.32 317.50
  Z"/><path fill="#01fdfe" d="
  M 919.32 317.50
  L 972.66 317.50
  A 1.69 1.68 -90.0 0 1 974.34 319.19
  L 974.34 1184.71
  A 1.53 1.52 -0.0 0 1 972.81 1186.23
  L 937.72 1186.25
  L 937.38 1186.05
  Q 936.92 1185.77 937.35 1185.44
  Q 937.48 1185.34 937.64 1185.34
  Q 938.19 1185.34 937.65 1185.23
  Q 937.28 1185.14 936.96 1185.01
  Q 936.20 1184.68 936.99 1184.46
  Q 937.85 1184.23 938.58 1183.71
  Q 939.24 1183.24 938.45 1183.37
  Q 938.24 1183.41 938.05 1183.29
  Q 937.62 1183.02 937.84 1182.56
  Q 938.09 1182.06 938.96 1182.01
  L 969.53 1181.67
  Q 969.99 1181.66 969.99 1181.20
  L 969.99 322.22
  A 0.43 0.43 0.0 0 0 969.56 321.79
  L 917.04 321.81
  Q 917.07 321.25 916.51 321.34
  A 0.04 0.03 38.5 0 0 916.52 321.41
  Q 916.69 321.40 916.85 321.39
  Q 917.30 321.34 917.17 320.90
  Q 916.48 318.53 919.32 317.50
  Z"/><path fill="#ffffff" d="
  M 1137.78 321.89
  Q 1140.49 320.63 1142.21 318.42
  Q 1142.60 318.31 1143.05 318.43
  Q 1143.40 318.52 1143.64 318.80
  Q 1171.67 352.23 1199.52 385.38
  A 1.89 1.89 0.0 0 1 1199.29 388.04
  L 1028.14 531.64
  A 2.01 1.99 -48.4 0 1 1025.76 531.79
  Q 1024.96 531.27 1024.96 530.30
  Q 1024.97 473.87 1024.96 417.22
  C 1024.96 415.58 1025.93 415.29 1027.06 414.34
  Q 1107.61 346.76 1137.78 321.89
  Z"/><path fill="#f12f82" d="
  M 1142.21 318.42
  Q 1140.49 320.63 1137.78 321.89
  Q 1139.75 319.04 1142.21 318.42
  Z"/><path fill="#f12f82" d="
  M 730.04 619.21
  L 729.57 620.05
  A 0.20 0.20 0.0 0 0 729.69 620.34
  Q 729.85 620.39 729.97 620.25
  Q 730.22 619.95 730.11 620.33
  Q 730.09 620.39 730.05 620.43
  Q 729.70 620.79 730.10 621.09
  Q 730.27 621.22 730.36 621.40
  Q 730.39 621.48 730.38 621.57
  Q 730.36 621.74 730.14 621.81
  Q 729.93 621.89 729.73 621.78
  Q 729.30 621.56 728.82 621.61
  Q 728.32 621.66 728.28 622.16
  Q 728.23 622.67 727.95 623.20
  Q 686.80 588.65 645.59 554.16
  Q 643.49 552.39 643.49 549.53
  Q 643.49 436.64 643.49 324.36
  A 0.35 0.35 0.0 0 0 643.14 324.01
  L 543.95 324.00
  Q 543.61 324.00 543.61 324.35
  Q 543.62 389.48 543.62 455.03
  C 543.62 460.75 537.35 463.33 533.01 459.68
  Q 517.47 446.58 503.86 435.22
  C 503.10 434.58 502.89 433.66 502.17 433.06
  Q 442.27 383.71 383.65 332.81
  L 385.49 330.84
  A 0.08 0.07 47.4 0 1 385.61 330.85
  Q 385.69 330.97 385.82 331.00
  Q 385.97 331.04 386.06 330.92
  Q 386.21 330.69 386.14 330.41
  Q 385.88 329.44 386.54 330.19
  Q 387.29 331.03 388.29 331.69
  Q 388.62 331.91 388.52 332.26
  A 0.33 0.33 0.0 0 0 388.86 332.67
  Q 389.33 332.66 389.34 333.08
  Q 389.34 333.71 389.96 333.64
  Q 390.60 333.58 391.27 333.85
  Q 391.38 333.63 391.65 333.86
  Q 451.16 385.47 512.04 435.47
  C 512.75 436.06 513.44 437.41 514.34 438.17
  Q 525.35 447.42 536.27 456.58
  A 1.76 1.76 0.0 0 0 539.17 455.23
  L 539.16 321.97
  Q 539.16 319.52 541.60 319.53
  Q 590.65 319.77 642.96 319.59
  Q 644.65 319.59 646.39 319.80
  A 1.72 1.72 0.0 0 1 647.91 321.51
  L 647.91 548.82
  A 3.21 3.20 20.2 0 0 649.04 551.26
  L 730.04 619.21
  Z"/><path fill="#f12f82" d="
  M 729.30 731.13
  L 727.43 732.02
  Q 726.88 732.29 726.89 732.90
  Q 726.89 733.09 726.79 733.25
  Q 726.37 733.90 725.85 733.32
  Q 725.17 732.57 724.93 733.21
  L 425.72 482.15
  A 1.81 1.81 0.0 0 0 422.75 483.54
  L 422.75 1015.52
  Q 422.75 1017.64 420.63 1017.64
  L 354.03 1017.51
  Q 354.63 1017.01 354.92 1016.51
  Q 355.06 1016.27 355.18 1016.53
  Q 355.24 1016.66 355.17 1016.79
  A 0.03 0.03 0.0 0 0 355.21 1016.83
  Q 356.20 1015.78 357.89 1015.90
  Q 358.26 1015.93 358.54 1015.72
  Q 358.67 1015.63 358.73 1015.47
  Q 358.82 1015.19 358.56 1015.06
  Q 357.80 1014.66 357.09 1014.62
  Q 356.98 1014.62 357.09 1014.61
  Q 357.75 1014.54 358.34 1014.38
  Q 358.91 1014.23 358.49 1013.83
  Q 358.02 1013.38 357.03 1013.21
  L 417.75 1013.30
  A 0.59 0.58 0.0 0 0 418.34 1012.72
  Q 418.34 748.08 418.34 483.72
  Q 418.34 480.66 420.79 478.81
  Q 424.76 475.81 428.55 478.98
  Q 579.04 604.92 729.30 731.13
  Z"/><path fill="#897db2" d="
  M 730.04 619.21
  L 755.03 640.17
  A 2.20 2.19 -44.9 0 0 757.86 640.17
  L 782.24 619.70
  Q 782.11 620.07 782.99 620.04
  Q 783.45 620.03 783.36 620.48
  Q 782.98 622.23 785.36 622.84
  Q 772.60 633.68 759.77 644.29
  Q 757.91 645.82 755.32 645.20
  Q 753.76 644.83 751.64 643.07
  Q 739.75 633.19 727.95 623.20
  Q 728.23 622.67 728.28 622.16
  Q 728.32 621.66 728.82 621.61
  Q 729.30 621.56 729.73 621.78
  Q 729.93 621.89 730.14 621.81
  Q 730.36 621.74 730.38 621.57
  Q 730.39 621.48 730.36 621.40
  Q 730.27 621.22 730.10 621.09
  Q 729.70 620.79 730.05 620.43
  Q 730.09 620.39 730.11 620.33
  Q 730.22 619.95 729.97 620.25
  Q 729.85 620.39 729.69 620.34
  A 0.20 0.20 0.0 0 1 729.57 620.05
  L 730.04 619.21
  Z"/><path fill="#fc659f" d="
  M 562.12 648.16
  L 559.27 651.53
  L 544.20 638.67
  Q 543.62 638.18 543.62 638.94
  L 543.62 1181.48
  A 0.42 0.41 -0.0 0 0 544.04 1181.89
  L 553.48 1181.90
  L 550.11 1182.13
  Q 549.66 1182.16 549.61 1182.60
  L 549.14 1186.31
  L 540.93 1186.26
  Q 539.51 1186.25 539.29 1184.85
  Q 539.07 1183.45 539.07 1181.76
  Q 539.22 907.94 539.16 634.13
  C 539.16 632.91 539.05 631.91 540.14 631.18
  A 1.74 1.72 -41.7 0 1 542.22 631.29
  L 562.12 648.16
  Z"/><path fill="#ffffff" d="
  M 559.27 651.53
  L 613.93 697.99
  L 640.20 720.35
  L 643.05 722.89
  A 1.12 1.10 -69.8 0 1 643.43 723.73
  L 643.47 1181.78
  L 623.34 1181.90
  L 611.07 1182.01
  L 553.48 1181.90
  L 544.04 1181.89
  A 0.42 0.41 -0.0 0 1 543.62 1181.48
  L 543.62 638.94
  Q 543.62 638.18 544.20 638.67
  L 559.27 651.53
  Z"/><path fill="#f12f82" d="
  M 562.12 648.16
  L 615.08 693.22
  L 614.07 694.25
  Q 613.72 694.60 613.75 695.09
  L 613.93 697.99
  L 559.27 651.53
  L 562.12 648.16
  Z"/><path fill="#47bdd7" d="
  M 938.96 1182.01
  Q 938.09 1182.06 937.84 1182.56
  Q 937.62 1183.02 938.05 1183.29
  Q 938.24 1183.41 938.45 1183.37
  Q 939.24 1183.24 938.58 1183.71
  Q 937.85 1184.23 936.99 1184.46
  Q 936.20 1184.68 936.96 1185.01
  Q 937.28 1185.14 937.65 1185.23
  Q 938.19 1185.34 937.64 1185.34
  Q 937.48 1185.34 937.35 1185.44
  Q 936.92 1185.77 937.38 1186.05
  L 937.72 1186.25
  L 867.30 1186.24
  A 1.59 1.49 -0.0 0 1 865.71 1184.75
  L 865.71 671.78
  A 1.58 1.56 -66.7 0 0 865.29 670.71
  Q 864.14 669.49 862.83 670.58
  Q 831.40 696.74 800.07 723.03
  Q 800.15 722.77 800.08 722.61
  Q 799.92 722.26 799.60 722.48
  Q 799.36 722.65 799.14 722.65
  Q 798.74 722.65 798.71 722.26
  L 798.62 721.22
  A 0.50 0.50 0.0 0 0 798.17 720.76
  Q 797.50 720.71 797.49 719.42
  Q 829.04 692.87 860.70 666.41
  Q 862.66 664.77 866.26 666.04
  Q 870.14 667.40 870.14 672.44
  Q 870.17 919.48 870.14 1181.22
  A 0.57 0.57 0.0 0 0 870.71 1181.79
  L 938.96 1182.01
  Z"/><path fill="#47bdd7" d="
  M 615.08 693.22
  L 641.63 715.77
  L 640.20 720.35
  L 613.93 697.99
  L 613.75 695.09
  Q 613.72 694.60 614.07 694.25
  L 615.08 693.22
  Z"/><path fill="#01fdfe" d="
  M 641.63 715.77
  Q 644.41 718.16 646.83 720.18
  Q 647.94 721.11 647.94 722.63
  Q 647.94 952.60 647.91 1182.17
  Q 647.91 1183.51 647.78 1184.91
  Q 647.73 1185.42 647.32 1185.73
  Q 646.07 1186.64 643.67 1186.23
  Q 644.27 1183.77 643.47 1181.78
  L 643.43 723.73
  A 1.12 1.10 -69.8 0 0 643.05 722.89
  L 640.20 720.35
  L 641.63 715.77
  Z"/><path fill="#897db2" d="
  M 797.49 719.42
  Q 797.50 720.71 798.17 720.76
  A 0.50 0.50 0.0 0 1 798.62 721.22
  L 798.71 722.26
  Q 798.74 722.65 799.14 722.65
  Q 799.36 722.65 799.60 722.48
  Q 799.92 722.26 800.08 722.61
  Q 800.15 722.77 800.07 723.03
  L 757.80 758.50
  A 2.11 2.10 -44.9 0 1 755.09 758.50
  L 724.93 733.21
  Q 725.17 732.57 725.85 733.32
  Q 726.37 733.90 726.79 733.25
  Q 726.89 733.09 726.89 732.90
  Q 726.88 732.29 727.43 732.02
  L 729.30 731.13
  L 753.87 751.72
  A 3.97 3.96 44.9 0 0 758.96 751.72
  L 797.49 719.42
  Z"/><path fill="#f12f82" d="
  M 553.48 1181.90
  L 611.07 1182.01
  Q 612.57 1184.42 611.99 1186.22
  L 549.14 1186.31
  L 549.61 1182.60
  Q 549.66 1182.16 550.11 1182.13
  L 553.48 1181.90
  Z"/><path fill="#47bdd7" d="
  M 643.47 1181.78
  Q 644.27 1183.77 643.67 1186.23
  L 623.25 1186.24
  L 623.34 1181.90
  L 643.47 1181.78
  Z"/><path fill="#897db2" d="
  M 611.07 1182.01
  L 623.34 1181.90
  L 623.25 1186.24
  L 611.99 1186.22
  Q 612.57 1184.42 611.07 1182.01
  Z"/></g></svg>